<svg width="88" height="80" viewBox="0 0 88 80" fill="none" xmlns="http://www.w3.org/2000/svg">
<path d="M80 32V8C80 3.6 76.4 0 72 0H8C3.6 0 0.04 3.6 0.04 8L0 56C0 60.4 3.6 64 8 64H52V44C52 37.36 57.36 32 64 32H80ZM40 36L8 16V8L40 28L72 8V16L40 36Z" fill="#0F172A"/>
<path d="M80 48V64C80 68.4 76.4 72 72 72C67.6 72 64 68.4 64 64V46C64 44.88 64.88 44 66 44C67.12 44 68 44.88 68 46V64H76V46C76 40.48 71.52 36 66 36C60.48 36 56 40.48 56 46V64C56 72.84 63.16 80 72 80C80.84 80 88 72.84 88 64V48H80Z" fill="#0F172A"/>
</svg>
