<svg width="87" height="90" viewBox="0 0 87 90" fill="none" xmlns="http://www.w3.org/2000/svg">
<path d="M81.1728 37.9517L85.5955 42.3744C87.4682 44.2471 87.4682 47.2752 85.5955 49.128L46.8868 87.8567C45.0141 89.7293 41.9859 89.7293 40.1332 87.8567L1.40451 49.128C-0.46817 47.2553 -0.46817 44.2272 1.40451 42.3744L5.82723 37.9517C7.71983 36.0591 10.8078 36.0989 12.6605 38.0314L35.5311 62.0376V4.78131C35.5311 2.13167 37.6628 0 40.3125 0H46.6875C49.3372 0 51.4689 2.13167 51.4689 4.78131V62.0376L74.3395 38.0314C76.1922 36.079 79.2802 36.0392 81.1728 37.9517Z" fill="#434343"/>
</svg>
